<svg xmlns="http://www.w3.org/2000/svg" xml:space="preserve" viewBox="0 0 572.7 100" role="img"><title>XPS Logistics</title><path d="M85.9 1.1H58.6L43.7 27.4H43L28.2 1.1H.8l26.7 45.1L0 91.2h27.7L43 64.4h.7L59 91.2h27.9L59 46.2zM152.8 5.2c-5-2.6-10.9-3.9-17.5-3.9H96.5v89.9h24.4V64.5h13.5c6.8 0 12.9-1.2 17.9-3.8 5.2-2.6 9.1-6.2 12-10.9s4.3-10.3 4.3-16.7c0-6.4-1.3-11.9-4.1-16.7-2.9-4.9-6.7-8.6-11.7-11.2zm-11.3 34.4c-1.1 1.9-2.7 3.3-4.7 4.4-2.1 1-4.5 1.6-7.4 1.6h-8.6V20.7h8.6c2.9 0 5.3.5 7.4 1.5 2.1.9 3.6 2.4 4.7 4.3s1.7 4 1.7 6.6c0 2.5-.6 4.7-1.7 6.5zM249 55.1c-1-2.9-2.7-5.5-5-7.9-2.3-2.3-5.2-4.4-8.7-6.1s-7.8-3.1-12.8-4.1l-7.4-1.6c-2.2-.4-3.9-.9-5.5-1.5s-2.8-1.1-3.8-1.9c-1-.7-1.8-1.5-2.2-2.3s-.6-1.9-.6-2.9c0-1.3.4-2.5 1.1-3.5s2-1.9 3.5-2.4c1.6-.6 3.6-.9 6.1-.9 3.9 0 7 .8 8.8 2.5 2 1.7 3 3.9 3.3 6.8h23.3c0-5.9-1.5-11-4.4-15.5-2.9-4.4-7-7.8-12.2-10.3-5.1-2.3-11.4-3.5-18.7-3.5-7.2 0-13.4 1.2-18.9 3.6-5.5 2.4-9.8 5.7-12.9 10.1-3.1 4.3-4.7 9.3-4.6 15 0 7.1 2.3 12.6 6.8 16.6 4.6 4 10.9 7 18.8 8.7l8.9 2c3.3.7 6 1.6 8 2.4 2 .8 3.4 1.8 4.3 2.8.8 1 1.3 2.3 1.3 3.6 0 1.5-.5 2.8-1.5 3.9-.9 1.1-2.3 2.1-4 2.7-1.8.6-3.9.9-6.5.9-3.1 0-5.8-.5-8-1.5-2.3-.9-3.9-2.4-5.2-4.3-1.2-1.9-1.9-4.1-2.1-7H175c0 7.6 1.7 13.7 4.9 18.5 3.2 4.8 7.7 8.4 13.5 10.7 5.8 2.3 12.7 3.4 20.4 3.4 7.6 0 14.1-1 19.6-3.2 5.4-2.2 9.6-5.3 12.6-9.3 2.9-4.1 4.4-9.1 4.5-15 .1-3.4-.4-6.6-1.5-9.5z" fill="#C00C00"/><path d="M286.7 30.8c-1 .4-2.2.7-3.5.7-1.2 0-2.3-.2-3.3-.6-.9-.4-1.8-.9-2.4-1.7-.6-.7-.9-1.6-1-2.6h-5.2c.1 1.9.6 3.4 1.7 4.8 1 1.3 2.4 2.5 4.1 3.2 1.8.7 3.7 1.1 6 1.1s4.4-.4 6.1-1.2c1.8-.8 3.2-2 4.3-3.4 1-1.5 1.6-3.1 1.6-5 0-2.1-.6-3.8-1.9-5.3-1.2-1.5-2.9-2.3-5.2-2.7v-.3c1.8-.4 3.1-1.3 4.1-2.6 1-1.3 1.6-2.9 1.6-4.8 0-1.7-.4-3.1-1.2-4.6-.8-1.3-2.1-2.5-3.6-3.3-1.6-.8-3.4-1.2-5.6-1.2-2.1 0-3.9.4-5.6 1.1-1.7.7-3 1.9-4 3.2-1 1.3-1.6 3-1.7 4.8h4.9c0-1 .3-1.9.9-2.6.6-.7 1.3-1.3 2.3-1.7.9-.4 2-.6 3-.6 1.1 0 2.2.2 3 .6s1.5 1 2 1.8c.4.7.7 1.7.7 2.7s-.3 2-.8 2.8c-.5.8-1.2 1.5-2.2 1.9-.9.4-2.1.6-3.3.6h-2.8V20h2.8c1.6 0 2.9.2 3.9.7 1.1.5 2 1.1 2.5 2 .6.8.8 1.9.8 3 0 1-.3 2.1-.8 2.9-.4 1.2-1.1 1.8-2.2 2.2zM313.6 23.7c2.6 0 4.8-.5 6.4-1.5 1.8-.9 3-2.3 3.8-3.9.8-1.7 1.2-3.5 1.2-5.6s-.4-3.9-1.2-5.5c-.8-1.7-2.2-2.9-3.8-3.8-1.8-.9-3.8-1.5-6.4-1.5h-11.9v33.5h5.1V23.7h6.8zm-.5-17.5c1.7 0 3 .3 4 .8s1.8 1.3 2.3 2.3.7 2.1.7 3.3-.2 2.4-.7 3.4-1.2 1.8-2.3 2.4c-1 .6-2.4.8-4 .8h-6.4v-13h6.4zM351.3 31.1h-15.1V2h-5.1v33.5h20.2zM360 29.3c-.9 0-1.7.3-2.3.9-.6.6-.9 1.5-.9 2.3 0 .9.3 1.7.9 2.3.6.6 1.5.9 2.3.9.6 0 1.1-.1 1.7-.4.5-.3.9-.7 1.1-1.1.3-.5.4-1 .4-1.7 0-.9-.3-1.7-.9-2.3-.7-.6-1.4-.9-2.3-.9zM289.2 83.3h-.4l-10.7-26H272v33.4h4.9V66.5h.3l9.8 24.2h4l9.9-24.2h.3v24.2h4.8V57.3h-6.1zM329.4 66.9c-1-.6-2.1-1-3.2-1.2s-2.2-.3-3.2-.3c-1.6 0-3 .2-4.4.6-1.3.4-2.6 1.1-3.6 2.1-1 .9-1.9 2.2-2.4 3.7l4.6 1c.3-.9 1-1.7 2-2.4.9-.7 2.3-1 3.8-1 1.6 0 2.8.4 3.5 1.1.8.8 1.2 1.9 1.2 3.3v.2c0 .6-.2 1-.6 1.2-.4.3-1.1.4-2.1.5-.9.1-2.2.2-3.6.4-1.1.1-2.4.3-3.5.6s-2.2.7-3.1 1.2c-.9.5-1.7 1.2-2.2 2.2-.5.9-.8 2.1-.8 3.5 0 1.7.4 3 1.1 4.1.7 1.1 1.8 2 3 2.6 1.2.6 2.7.9 4.4.9 1.3 0 2.6-.2 3.5-.6 1-.4 1.8-.9 2.4-1.6.6-.6 1.1-1.2 1.5-1.9h.2v3.4h4.8V74.1c0-1.9-.3-3.3-.9-4.5-.7-1.2-1.5-2.1-2.4-2.7zm-1.6 14.7c0 1-.2 2-.7 2.8s-1.2 1.6-2.2 2.1c-.9.5-2.1.8-3.5.8-1.3 0-2.5-.3-3.4-.9-.9-.6-1.3-1.6-1.3-2.7 0-.8.2-1.6.7-2.1.4-.5 1-.9 1.9-1.2.8-.3 1.7-.5 2.6-.6.4-.1.9-.1 1.6-.2.6-.1 1.2-.2 1.9-.3.6-.1 1.2-.2 1.7-.4.5-.1.8-.3 1-.5v3.3h-.3zM356.1 69.7h-.3c-.3-.5-.7-1.1-1.2-1.8s-1.2-1.2-2.2-1.8c-.9-.5-2.2-.7-3.7-.7-2 0-3.8.5-5.4 1.6-1.6 1-2.8 2.5-3.7 4.5-.9 2-1.3 4.3-1.3 7s.4 5.1 1.3 7c.9 2 2.2 3.4 3.7 4.5 1.6 1 3.4 1.6 5.4 1.6 1.6 0 2.8-.2 3.7-.7.9-.5 1.8-1.1 2.3-1.8s.9-1.3 1.2-1.9h.4V91h4.8V57.5h-4.9v12.2h-.1zm-.6 13.1c-.5 1.3-1.2 2.4-2.2 3.1-.9.7-2.2 1.1-3.5 1.1-1.5 0-2.7-.4-3.6-1.1-1-.8-1.8-1.9-2.3-3.2-.5-1.3-.7-2.8-.7-4.6 0-1.7.2-3.1.7-4.5.5-1.3 1.2-2.4 2.2-3.1s2.2-1.1 3.6-1.1 2.6.4 3.6 1.1c.9.7 1.7 1.8 2.2 3 .5 1.3.7 2.8.7 4.6 0 1.8-.2 3.3-.7 4.7zM386.2 68.2c-1-1-2.3-1.8-3.6-2.2-1.3-.5-2.7-.7-4.1-.7-2.3 0-4.4.5-6.1 1.7-1.8 1.1-3.1 2.6-4 4.6-.9 2-1.5 4.3-1.5 6.8 0 2.6.5 4.9 1.5 6.8.9 2 2.4 3.4 4.1 4.5 1.8 1 3.9 1.6 6.4 1.6 1.9 0 3.4-.3 4.9-.8 1.5-.5 2.6-1.3 3.6-2.4.9-1 1.7-2.2 2-3.5l-4.7-.8c-.3.8-.7 1.5-1.2 2s-1.2.9-2 1.2c-.7.3-1.7.4-2.5.4-1.5 0-2.7-.3-3.7-.9-1-.6-1.9-1.6-2.5-2.7-.5-1.1-.8-2.4-.8-3.9h17.8v-1.8c0-2.3-.3-4.3-.9-5.8-.8-1.9-1.7-3.1-2.7-4.1zm-14.4 7.7c.1-1 .3-2.1.8-3 .5-1 1.3-2 2.4-2.6 1-.6 2.2-1 3.6-1 1.2 0 2.4.3 3.3.8.9.6 1.7 1.3 2.2 2.4s.8 2.2.8 3.4h-13.1zM419.7 76.7l-3.9-.9c-1.3-.3-2.4-.7-3-1.2-.6-.5-.9-1.1-.9-2.1 0-.9.4-1.8 1.3-2.4.9-.6 2.1-.9 3.4-.9 1 0 1.9.2 2.5.5.7.3 1.2.7 1.7 1.2.4.5.7 1 .8 1.7l4.5-.8c-.5-2-1.6-3.5-3.1-4.7-1.6-1.1-3.7-1.8-6.4-1.8-1.9 0-3.5.3-5 .9-1.5.6-2.6 1.5-3.4 2.6s-1.2 2.4-1.2 3.9c0 1.8.5 3.2 1.7 4.5 1.1 1.1 2.8 2 5.2 2.6l4.3.9c1.2.3 2.1.7 2.7 1.2.6.5.8 1.2.8 2 0 .9-.5 1.8-1.5 2.5-.9.6-2.3 1-3.8 1s-2.7-.3-3.6-.9c-.9-.6-1.6-1.6-1.8-2.8l-4.8.7c.4 2.2 1.5 3.9 3.3 5.2 1.8 1.2 4 1.8 6.8 1.8 2.1 0 3.8-.3 5.4-1 1.6-.6 2.7-1.6 3.6-2.8.8-1.1 1.3-2.5 1.3-4 0-1.8-.5-3.2-1.7-4.4-1.1-1.2-2.9-2-5.2-2.5zM434.4 55.9c-.8 0-1.6.3-2.2.8-.6.6-.9 1.2-.9 2.1s.3 1.5.9 2.1c.6.6 1.3.8 2.2.8s1.6-.3 2.2-.8c.6-.5.9-1.2.9-2.1s-.3-1.5-.9-2.1c-.6-.6-1.3-.8-2.2-.8zM431.9 65.6h4.9v25.1h-4.9zM469.8 65.2c-1.8 0-3.3.4-4.7 1.2-1.3.8-2.3 1.9-2.9 3.2h-.3c-.5-1.3-1.3-2.5-2.5-3.2-1.1-.8-2.6-1.1-4.3-1.1-1.7 0-3.1.4-4.3 1.1-1.1.8-2.1 1.9-2.6 3.2h-.2v-4h-4.7v25.1h4.9V75.3c0-1.1.2-2.2.7-3 .5-.8 1.1-1.6 1.9-2 .8-.5 1.7-.7 2.6-.7 1.3 0 2.5.4 3.3 1.2s1.2 2 1.2 3.3v16.7h4.9v-16c0-1.6.4-2.8 1.3-3.7.9-.9 2.1-1.5 3.7-1.5 1.2 0 2.4.4 3.3 1.1.9.7 1.3 2 1.3 3.7V91h4.9V74.2c0-2.9-.7-5.1-2.2-6.4-1.1-1.8-3-2.6-5.3-2.6zM502 66.8c-1.6-1-3.4-1.6-5.4-1.6-1.6 0-2.8.2-3.7.7-.9.5-1.7 1.1-2.2 1.8-.5.7-.9 1.2-1.2 1.8h-.5v-4h-4.8V100h4.9V86.6h.3c.3.5.7 1.1 1.2 1.9.5.7 1.3 1.2 2.3 1.8s2.2.7 3.7.7c2.1 0 3.8-.5 5.4-1.6 1.6-1 2.8-2.5 3.7-4.5.9-2 1.3-4.3 1.3-7s-.4-5.1-1.3-7c-.9-1.6-2.2-3.1-3.7-4.1zm-.7 15.9c-.5 1.3-1.2 2.4-2.3 3.2-.9.8-2.2 1.1-3.6 1.1s-2.6-.4-3.5-1.1c-.9-.7-1.8-1.8-2.2-3.1-.5-1.3-.7-2.9-.7-4.7s.2-3.3.7-4.6c.5-1.3 1.2-2.3 2.2-3 .9-.7 2.2-1.1 3.6-1.1s2.7.4 3.7 1.1c1 .7 1.8 1.8 2.2 3.1.5 1.3.7 2.8.7 4.5 0 1.8-.2 3.2-.8 4.6zM512.6 57.3h4.9v33.5h-4.9zM542.2 68.2c-1-1-2.3-1.8-3.6-2.2-1.3-.5-2.7-.7-4.1-.7-2.3 0-4.4.5-6.1 1.7-1.8 1.1-3.1 2.6-4 4.6-.9 2-1.5 4.3-1.5 6.8 0 2.6.5 4.9 1.5 6.8.9 2 2.4 3.4 4.1 4.5s3.9 1.6 6.4 1.6c1.9 0 3.4-.3 4.9-.8 1.5-.5 2.6-1.3 3.6-2.4.9-1 1.7-2.2 2-3.5l-4.7-.8c-.3.8-.7 1.5-1.2 2s-1.2.9-2 1.2c-.7.3-1.7.4-2.5.4-1.5 0-2.7-.3-3.7-.9-1-.6-1.9-1.6-2.5-2.7-.5-1.1-.8-2.4-.8-3.9h17.8v-1.8c0-2.3-.3-4.3-.9-5.8-.8-1.9-1.6-3.1-2.7-4.1zm-14.4 7.7c.1-1 .3-2.1.8-3 .5-1 1.3-2 2.4-2.6 1-.6 2.2-1 3.6-1 1.2 0 2.4.3 3.3.8.9.6 1.7 1.3 2.2 2.4.5 1 .8 2.2.8 3.4h-13.1zM556.5 85.5c-.6-.6-1.5-.9-2.3-.9-.9 0-1.7.3-2.3.9-.6.6-.9 1.5-.9 2.3 0 .9.3 1.7.9 2.3.6.6 1.5.9 2.3.9.6 0 1.1-.1 1.7-.4.5-.3.9-.7 1.1-1.1.3-.5.4-1 .4-1.7.2-1-.1-1.7-.9-2.3zM558 48.5v-1h5.8v.9h-2.4V55h-1v-6.4H558zM565.1 47.5h1.3l2.4 5.9h.1l2.4-5.9h1.3v7.6h-1v-5.5h-.1l-2.2 5.5h-.9l-2.2-5.5h-.1v5.5h-1v-7.6z"/></svg>
