<?xml version="1.0" encoding="utf-8"?>
<!-- Generator: Adobe Illustrator 26.3.1, SVG Export Plug-In . SVG Version: 6.00 Build 0)  -->
<svg version="1.1" id="Layer_1" xmlns="http://www.w3.org/2000/svg" xmlns:xlink="http://www.w3.org/1999/xlink" x="0px" y="0px"
	 viewBox="0 0 566.5 94" style="enable-background:new 0 0 566.5 94;" xml:space="preserve">
<style type="text/css">
	.st0{fill:#C00C00;}
</style>
<path class="st0" d="M87.7,1.1H59.8L44.6,28h-0.7L28.8,1.1h-28l27.3,46L0,93.1h28.3l15.6-27.4h0.7l15.6,27.4h28.5L60.2,47.2
	L87.7,1.1z M156,5.3c-5.1-2.7-11.1-4-17.9-4H98.5v91.8h24.9V65.8h13.8c6.9,0,13.2-1.2,18.3-3.9c5.3-2.7,9.3-6.3,12.2-11.1
	c3-4.8,4.4-10.5,4.4-17s-1.3-12.1-4.2-17C164.9,11.7,161.1,8,156,5.3L156,5.3z M144.4,40.4c-1.1,1.9-2.8,3.4-4.8,4.5
	c-2.1,1-4.6,1.6-7.6,1.6h-8.8V21.1h8.8c3,0,5.4,0.5,7.6,1.5c2.1,0.9,3.7,2.4,4.8,4.4s1.7,4.1,1.7,6.7
	C146.2,36.3,145.5,38.6,144.4,40.4z M254.1,56.2c-1-3-2.8-5.6-5.1-8.1c-2.3-2.3-5.3-4.5-8.9-6.2c-3.6-1.7-8-3.2-13.1-4.2l-7.6-1.6
	c-2.2-0.4-4-0.9-5.6-1.5c-1.6-0.6-2.9-1.1-3.9-1.9c-1-0.7-1.8-1.5-2.2-2.3c-0.4-0.8-0.6-1.9-0.6-3c0-1.3,0.4-2.6,1.1-3.6
	s2-1.9,3.6-2.4c1.6-0.6,3.7-0.9,6.2-0.9c4,0,7.1,0.8,9,2.6c2,1.7,3.1,4,3.4,6.9h23.8c0-6-1.5-11.2-4.5-15.8c-3-4.5-7.1-8-12.5-10.5
	C232.1,1.2,225.7,0,218.2,0c-7.3,0-13.7,1.2-19.3,3.7s-10,5.8-13.2,10.3c-3.2,4.4-4.8,9.5-4.7,15.3c0,7.2,2.3,12.9,6.9,16.9
	c4.7,4.1,11.1,7.1,19.2,8.9l9.1,2c3.4,0.7,6.1,1.6,8.2,2.4s3.5,1.8,4.4,2.9c0.8,1,1.3,2.3,1.3,3.7c0,1.5-0.5,2.9-1.5,4
	c-0.9,1.1-2.3,2.1-4.1,2.8c-1.8,0.6-4,0.9-6.6,0.9c-3.2,0-5.9-0.5-8.2-1.5c-2.3-0.9-4-2.4-5.3-4.4c-1.2-1.9-1.9-4.2-2.1-7.1h-23.7
	c0,7.8,1.7,14,5,18.9c3.3,4.9,7.9,8.6,13.8,10.9c5.9,2.3,13,3.5,20.8,3.5c7.8,0,14.4-1,20-3.3c5.5-2.2,9.8-5.4,12.9-9.5
	c3-4.2,4.5-9.3,4.6-15.3C255.8,62.5,255.3,59.2,254.1,56.2z"/>
<g>
	<g>
		<path d="M300,29.5c-0.9,0.4-2.1,0.7-3.3,0.7c-1.1,0-2.1-0.2-3.1-0.6c-0.8-0.4-1.7-0.8-2.2-1.6c-0.6-0.7-0.8-1.5-0.9-2.4h-4.8
			c0.1,1.8,0.6,3.2,1.6,4.5c0.9,1.2,2.2,2.3,3.8,3c1.7,0.7,3.4,1,5.6,1s4.1-0.4,5.7-1.1c1.7-0.7,3-1.9,4-3.2
			c0.9-1.4,1.5-2.9,1.5-4.7c0-2-0.6-3.5-1.8-4.9c-1.1-1.4-2.7-2.1-4.8-2.5v-0.3c1.7-0.4,2.9-1.2,3.8-2.4c0.9-1.2,1.5-2.7,1.5-4.5
			c0-1.6-0.4-2.9-1.1-4.3c-0.7-1.2-2-2.3-3.4-3.1c-1.5-0.7-3.2-1.1-5.2-1.1c-2,0-3.6,0.4-5.2,1s-2.8,1.8-3.7,3
			c-0.9,1.2-1.5,2.8-1.6,4.5h4.6c0-0.9,0.3-1.8,0.8-2.4c0.6-0.7,1.2-1.2,2.1-1.6c0.8-0.4,1.9-0.6,2.8-0.6c1,0,2.1,0.2,2.8,0.6
			c0.7,0.4,1.4,0.9,1.9,1.7c0.4,0.7,0.7,1.6,0.7,2.5s-0.3,1.9-0.7,2.6c-0.5,0.7-1.1,1.4-2.1,1.8c-0.8,0.4-2,0.6-3.1,0.6h-2.6v3.8
			h2.6c1.5,0,2.7,0.2,3.6,0.7c1,0.5,1.9,1,2.3,1.9c0.6,0.7,0.7,1.8,0.7,2.8c0,0.9-0.3,2-0.7,2.7C301.7,28.6,301.1,29.1,300,29.5z"/>
		<path d="M331.1,21.5c1.7-0.8,2.8-2.1,3.5-3.6c0.7-1.6,1.1-3.3,1.1-5.2s-0.4-3.6-1.1-5.1c-0.7-1.6-2.1-2.7-3.5-3.5
			c-1.7-0.8-3.5-1.4-6-1.4H314v31.2h4.8V22.9h6.3C327.5,22.9,329.6,22.4,331.1,21.5z M318.7,18.7V6.6h6c1.6,0,2.8,0.3,3.7,0.7
			s1.7,1.2,2.1,2.1s0.7,2,0.7,3.1s-0.2,2.2-0.7,3.2s-1.1,1.7-2.1,2.2c-0.9,0.6-2.2,0.7-3.7,0.7H318.7z"/>
		<polygon points="360.2,29.8 346.2,29.8 346.2,2.7 341.4,2.7 341.4,33.9 360.2,33.9 		"/>
		<path d="M368.4,28.1c-0.8,0-1.6,0.3-2.1,0.8s-0.8,1.4-0.8,2.1c0,0.8,0.3,1.6,0.8,2.1s1.4,0.8,2.1,0.8c0.6,0,1-0.1,1.6-0.4
			c0.5-0.3,0.8-0.7,1-1c0.3-0.5,0.4-0.9,0.4-1.6c0-0.8-0.3-1.6-0.8-2.1C369.9,28.4,369.2,28.1,368.4,28.1z"/>
	</g>
	<g>
		<polygon points="302.4,76.4 302,76.4 292,52.2 286.3,52.2 286.3,83.3 290.9,83.3 290.9,60.8 291.2,60.8 300.3,83.3 304,83.3 
			313.3,60.8 313.6,60.8 313.6,83.3 318,83.3 318,52.2 312.3,52.2 		"/>
		<path d="M339.8,61.1c-0.9-0.6-2-0.9-3-1.1s-2.1-0.3-3-0.3c-1.5,0-2.8,0.2-4.1,0.6c-1.2,0.4-2.4,1-3.4,2c-0.9,0.8-1.8,2.1-2.2,3.4
			l4.3,0.9c0.3-0.8,0.9-1.6,1.9-2.2c0.8-0.7,2.1-0.9,3.5-0.9c1.5,0,2.6,0.4,3.3,1c0.7,0.7,1.1,1.8,1.1,3.1v0.2
			c0,0.6-0.2,0.9-0.6,1.1c-0.4,0.3-1,0.4-2,0.5c-0.8,0.1-2.1,0.2-3.4,0.4c-1,0.1-2.2,0.3-3.3,0.6c-1,0.3-2.1,0.7-2.9,1.1
			c-0.8,0.5-1.6,1.1-2.1,2.1c-0.5,0.8-0.7,2-0.7,3.3c0,1.6,0.4,2.8,1,3.8c0.7,1,1.7,1.9,2.8,2.4c1.1,0.6,2.5,0.8,4.1,0.8
			c1.2,0,2.4-0.2,3.3-0.6c0.9-0.4,1.7-0.8,2.2-1.5c0.6-0.6,1-1.1,1.4-1.8h0.2v3.2h4.5V67.9c0-1.8-0.3-3.1-0.8-4.2
			C341.4,62.5,340.7,61.7,339.8,61.1z M338.6,74.9h-0.3l0-0.1c0,0.9-0.2,1.9-0.7,2.6c-0.5,0.7-1.1,1.5-2.1,2c-0.8,0.5-2,0.7-3.3,0.7
			c-1.2,0-2.3-0.3-3.2-0.8c-0.8-0.6-1.2-1.5-1.2-2.5c0-0.7,0.2-1.5,0.7-2c0.4-0.5,0.9-0.8,1.8-1.1c0.7-0.3,1.6-0.5,2.4-0.6
			c0.4-0.1,0.8-0.1,1.5-0.2c0.6-0.1,1.1-0.2,1.8-0.3c0.6-0.1,1.1-0.2,1.6-0.4c0.5-0.1,0.7-0.3,0.9-0.5V74.9z"/>
		<path d="M364.8,63.8L364.8,63.8L364.8,63.8h-0.4c-0.3-0.5-0.7-1-1.1-1.7s-1.1-1.1-2.1-1.7c-0.8-0.5-2.1-0.7-3.4-0.7
			c-1.9,0-3.5,0.5-5,1.5c-1.5,0.9-2.6,2.3-3.4,4.2c-0.8,1.9-1.2,4-1.2,6.5s0.4,4.8,1.2,6.5c0.8,1.9,2.1,3.2,3.4,4.2
			c1.5,0.9,3.2,1.5,5,1.5c1.5,0,2.6-0.2,3.4-0.7c0.8-0.5,1.7-1,2.1-1.7c0.5-0.7,0.8-1.2,1.1-1.8h0.4v3.5h4.5V52.4h-4.6V63.8z
			 M364.2,76c-0.5,1.2-1.1,2.2-2.1,2.9c-0.8,0.7-2.1,1-3.3,1c-1.4,0-2.5-0.4-3.4-1c-0.9-0.7-1.7-1.8-2.1-3c-0.5-1.2-0.7-2.6-0.7-4.3
			c0-1.6,0.2-2.9,0.7-4.2c0.5-1.2,1.1-2.2,2.1-2.9c0.9-0.7,2.1-1,3.4-1c1.3,0,2.4,0.4,3.4,1c0.8,0.7,1.6,1.7,2.1,2.8
			c0.5,1.2,0.7,2.6,0.7,4.3C364.8,73.3,364.6,74.7,364.2,76z"/>
		<path d="M392.8,62.4L392.8,62.4c-0.9-0.9-2.1-1.7-3.4-2.1c-1.2-0.5-2.5-0.7-3.8-0.7c-2.1,0-4.1,0.5-5.7,1.6
			c-1.7,1-2.9,2.4-3.7,4.3c-0.8,1.9-1.4,4-1.4,6.3c0,2.4,0.5,4.6,1.4,6.3c0.8,1.9,2.2,3.2,3.8,4.2c1.7,0.9,3.6,1.5,6,1.5
			c1.8,0,3.2-0.3,4.6-0.7c1.4-0.5,2.4-1.2,3.4-2.2c0.8-0.9,1.6-2.1,1.9-3.3l-4.4-0.7c-0.3,0.7-0.7,1.4-1.1,1.9s-1.1,0.8-1.9,1.1
			c-0.7,0.3-1.6,0.4-2.3,0.4c-1.4,0-2.5-0.3-3.4-0.8s-1.8-1.5-2.3-2.5c-0.5-1-0.7-2.2-0.7-3.6h16.6v-1.7c0-2.1-0.3-4-0.8-5.4
			C394.6,64.4,393.7,63.3,392.8,62.4z M379.4,69.5L379.4,69.5c0.1-0.9,0.3-2,0.7-2.8c0.5-0.9,1.2-1.9,2.2-2.4
			c0.9-0.6,2.1-0.9,3.4-0.9c1.1,0,2.2,0.3,3.1,0.7c0.8,0.6,1.6,1.2,2.1,2.2c0.5,1,0.7,2.1,0.7,3.2H379.4z"/>
		<path d="M424,70.3l-3.6-0.8c-1.2-0.3-2.2-0.7-2.8-1.1s-0.8-1-0.8-2c0-0.8,0.4-1.7,1.2-2.2c0.8-0.6,2-0.8,3.2-0.8
			c0.9,0,1.8,0.2,2.3,0.5c0.7,0.3,1.1,0.7,1.6,1.1c0.4,0.5,0.7,0.9,0.7,1.6l4.2-0.7c-0.5-1.9-1.5-3.3-2.9-4.4c-1.5-1-3.4-1.7-6-1.7
			c-1.8,0-3.3,0.3-4.7,0.8c-1.4,0.6-2.4,1.4-3.2,2.4c-0.7,1-1.1,2.2-1.1,3.6c0,1.7,0.5,3,1.6,4.2c1,1,2.6,1.9,4.8,2.4l4,0.8
			c1.1,0.3,2,0.7,2.5,1.1c0.6,0.5,0.7,1.1,0.7,1.9c0,0.8-0.5,1.7-1.4,2.3c-0.8,0.6-2.1,0.9-3.5,0.9c-1.4,0-2.5-0.3-3.4-0.8
			c-0.8-0.6-1.5-1.5-1.7-2.6l-4.5,0.7c0.4,2.1,1.4,3.6,3.1,4.8c1.7,1.1,3.7,1.7,6.3,1.7c2,0,3.5-0.3,5-0.9c1.5-0.6,2.5-1.5,3.4-2.6
			c0.7-1,1.2-2.3,1.2-3.7c0-1.7-0.5-3-1.6-4.1C427.8,71.5,426.2,70.7,424,70.3z"/>
		<path d="M437.7,50.9c-0.7,0-1.5,0.3-2.1,0.7c-0.6,0.6-0.8,1.1-0.8,2c0,0.8,0.3,1.4,0.8,2c0.6,0.6,1.2,0.7,2.1,0.7s1.5-0.3,2.1-0.7
			s0.8-1.1,0.8-2c0-0.8-0.3-1.4-0.8-2S438.5,50.9,437.7,50.9z"/>
		<rect x="435.4" y="59.9" width="4.6" height="23.4"/>
		<path d="M470.7,59.6c-1.7,0-3.1,0.4-4.4,1.1c-1.2,0.7-2.1,1.8-2.7,3h-0.3c-0.5-1.2-1.2-2.3-2.3-3c-1-0.7-2.4-1-4-1s-2.9,0.4-4,1
			c-1,0.7-2,1.8-2.4,3h-0.2v-3.7H446v23.4h4.6V69c0-1,0.2-2.1,0.7-2.8c0.5-0.7,1-1.5,1.8-1.9c0.7-0.5,1.6-0.7,2.4-0.7
			c1.2,0,2.3,0.4,3.1,1.1c0.7,0.7,1.1,1.9,1.1,3.1v15.6h4.6V68.5c0-1.5,0.4-2.6,1.2-3.4c0.8-0.8,2-1.4,3.4-1.4c1.1,0,2.2,0.4,3.1,1
			c0.8,0.7,1.2,1.9,1.2,3.4v15.5h4.6V68c0-2.7-0.7-4.8-2.1-6C474.6,60.3,472.8,59.6,470.7,59.6z"/>
		<polygon points="470.7,59.6 470.7,59.6 470.7,59.6 		"/>
		<path d="M500.7,61.1c-1.5-0.9-3.2-1.5-5-1.5c-1.5,0-2.6,0.2-3.4,0.7c-0.8,0.5-1.6,1-2.1,1.7c-0.5,0.7-0.8,1.1-1.1,1.7h-0.5v-3.7
			h-4.5V92h4.6V79.5h0.3c0.3,0.5,0.7,1,1.1,1.8c0.5,0.7,1.2,1.1,2.1,1.7c0.9,0.6,2.1,0.7,3.4,0.7c2,0,3.5-0.5,5-1.5
			c1.5-0.9,2.6-2.3,3.4-4.2c0.8-1.9,1.2-4,1.2-6.5s-0.4-4.8-1.2-6.5C503.3,63.4,502.1,62,500.7,61.1z M500.1,75.9L500.1,75.9
			c-0.5,1.2-1.1,2.2-2.1,3c-0.8,0.7-2.1,1-3.4,1c-1.3,0-2.4-0.4-3.3-1c-0.8-0.7-1.7-1.7-2.1-2.9c-0.5-1.2-0.7-2.7-0.7-4.4
			c0-1.7,0.2-3.1,0.7-4.3c0.5-1.2,1.1-2.1,2.1-2.8c0.8-0.7,2.1-1,3.4-1c1.3,0,2.5,0.4,3.4,1s1.7,1.7,2.1,2.9
			c0.5,1.2,0.7,2.6,0.7,4.2C500.8,73.3,500.6,74.6,500.1,75.9z"/>
		<rect x="510.6" y="52.2" width="4.6" height="31.2"/>
		<path d="M538.2,62.4c-0.9-0.9-2.1-1.7-3.4-2.1c-1.2-0.5-2.5-0.7-3.8-0.7c-2.1,0-4.1,0.5-5.7,1.6c-1.7,1-2.9,2.4-3.7,4.3
			c-0.8,1.9-1.4,4-1.4,6.3c0,2.4,0.5,4.6,1.4,6.3c0.8,1.9,2.2,3.2,3.8,4.2c1.6,1,3.6,1.5,6,1.5c1.8,0,3.2-0.3,4.6-0.7
			c1.4-0.5,2.4-1.2,3.4-2.2c0.8-0.9,1.6-2.1,1.9-3.3l-4.4-0.7c-0.3,0.7-0.7,1.4-1.1,1.9s-1.1,0.8-1.9,1.1c-0.7,0.3-1.6,0.4-2.3,0.4
			c-1.4,0-2.5-0.3-3.4-0.8s-1.8-1.5-2.3-2.5c-0.5-1-0.7-2.2-0.7-3.6h16.6v-1.7c0-2.1-0.3-4-0.8-5.4C540,64.4,539.2,63.3,538.2,62.4z
			 M524.8,69.5c0.1-0.9,0.3-2,0.7-2.8c0.5-0.9,1.2-1.9,2.2-2.4c0.9-0.6,2.1-0.9,3.4-0.9c1.1,0,2.2,0.3,3.1,0.7
			c0.8,0.6,1.6,1.2,2.1,2.2c0.5,0.9,0.7,2.1,0.7,3.2C537,69.5,524.8,69.5,524.8,69.5z"/>
		<path d="M551.5,78.5c-0.6-0.6-1.4-0.8-2.1-0.8c-0.8,0-1.6,0.3-2.1,0.8s-0.8,1.4-0.8,2.1c0,0.8,0.3,1.6,0.8,2.1
			c0.6,0.6,1.4,0.8,2.1,0.8c0.6,0,1-0.1,1.6-0.4c0.5-0.3,0.8-0.7,1-1c0.3-0.5,0.4-0.9,0.4-1.6C552.5,79.7,552.3,79,551.5,78.5z"/>
		<polygon points="552.9,44 552.9,44.1 555.2,44.1 555.2,50.1 556.1,50.1 556.1,43.9 558.3,43.9 558.3,43.1 552.9,43.1 		"/>
		<polygon points="565.3,43.1 563.1,48.6 563,48.6 560.7,43.1 559.5,43.1 559.5,50.1 560.5,50.1 560.5,45 560.6,45 562.6,50.1 
			563.5,50.1 565.5,45 565.6,45 565.6,50.1 566.5,50.1 566.5,43.1 		"/>
	</g>
</g>
</svg>
