<svg xmlns="http://www.w3.org/2000/svg" viewBox="0 0 64 64" style="enable-background:new 0 0 64 64" xml:space="preserve" role="img"><title>Share on X (formerly Twitter)</title><path d="M64 18.3c-.6.3-1.1.5-1.8.8-.7.3-1.3.5-1.9.6-.6.1-1.3.3-1.9.4-.6.1-1.4.3-1.9.4.6-.4 1.3-.9 1.9-1.5.6-.5 1.1-1 1.5-1.7.5-.6 1-1.3 1.4-1.9.4-.6.6-1.4.9-2.2-.6.4-1.4.6-1.9 1-.6.4-1.4.6-1.9.9-.6.3-1.4.5-2.2.6-.8.3-1.5.5-2.3.6-.6-.6-1.3-1.3-1.9-1.8-.8-.5-1.5-.9-2.3-1.3-.9-.4-1.5-.6-2.4-.9-.9 0-1.9-.1-2.9-.1-1.8 0-3.3.4-5 1s-3.2 1.5-4.2 2.8c-1.1 1.3-2.2 2.7-2.8 4.2-.8 1.5-1.1 3.2-1.1 5.1 0 .3 0 .5.1.8v.8c0 .3 0 .5.1.8 0 .3 0 .5.1.8-2.8-.1-5.4-.6-7.8-1.4-2.7-.6-5-1.5-7.3-2.8-2.3-1.1-4.5-2.7-6.5-4.2s-3.9-3.3-5.6-5.4c-.2.3-.5.8-.6 1.3-.2.6-.5 1.1-.6 1.6-.1.6-.3 1.1-.4 1.7s-.1 1.1-.1 1.8c0 1.1.1 2.3.5 3.2.3 1.1.6 2.2 1.1 2.9.5 1 1.1 1.9 1.9 2.7s1.5 1.4 2.3 1.9c-.5 0-1 0-1.5-.1-.6-.1-1.1-.2-1.5-.3-.5-.1-1-.3-1.4-.5-.5-.1-1-.4-1.4-.6v.2c0 1.5.3 3.2.8 4.5.5 1.5 1.2 2.7 2.2 3.8.9 1.1 1.9 2.2 3.3 2.8 1.3.9 2.7 1.4 4.1 1.8-.3.1-.5.1-.8.1-.4.1-.6.1-.9.1-.3.1-.5.1-.8.1H8.5c-.3 0-.5 0-.6-.1-.3 0-.5 0-.8-.1.4 1.4 1 2.4 1.9 3.6.8 1.1 1.5 2.2 2.8 2.8 1.1.9 2.3 1.5 3.6 1.9 1.3.5 2.7.8 4.1.8-1.1.9-2.3 1.8-3.6 2.3-1.3.8-2.4 1.4-3.8 1.8-1.4.5-2.8.9-4.2 1.1-1.5.2-3 .4-4.7.4H1.6c-.4 0-.6 0-.9-.1h-.8c1.4.9 2.8 1.8 4.5 2.4s3.2 1.4 5 1.9c1.5.5 3.3.9 5.2 1.1 1.8.3 3.6.4 5.4.4 6 0 11.4-1.1 15.9-3.3 4.5-2.3 8.7-5.1 11.7-8.7 3.1-3.6 5.6-7.5 7.3-12.1 1.6-4.4 2.4-8.7 2.4-13V25.1c.6-.5 1.3-1 1.9-1.5.6-.5 1.1-1 1.8-1.5.5-.6 1-1.3 1.5-1.9.6-.6 1.1-1.3 1.5-1.9z"></path></svg>
