<svg xmlns="http://www.w3.org/2000/svg" xml:space="preserve" viewBox="0 0 250 250" role="img"><title>XPS Logistics</title><path fill="#C00C00" d="M85.7 80.1H58.5l-14.9 26.3h-.7L28.2 80.1H.8l26.7 45.1-27.5 45h27.7l15.2-26.8h.7l15.3 26.8h27.8l-27.8-45zM152.5 84.2c-5-2.6-10.9-3.9-17.5-3.9H96.3v89.9h24.4v-26.7h13.5c6.8 0 12.9-1.2 17.9-3.8 5.2-2.6 9.1-6.2 12-10.9 2.9-4.7 4.3-10.3 4.3-16.7s-1.3-11.9-4.1-16.7c-3-4.9-6.8-8.6-11.8-11.2zm-11.3 34.4c-1.1 1.9-2.7 3.3-4.7 4.4-2.1 1-4.5 1.6-7.4 1.6h-8.6V99.7h8.6c2.9 0 5.3.5 7.4 1.5 2.1.9 3.6 2.4 4.7 4.3s1.7 4 1.7 6.6c0 2.5-.6 4.7-1.7 6.5zM248.5 134.1c-1-2.9-2.7-5.5-5-7.9-2.3-2.3-5.2-4.4-8.7-6.1-3.5-1.7-7.8-3.1-12.8-4.1l-7.4-1.6c-2.2-.4-3.9-.9-5.5-1.5s-2.8-1.1-3.8-1.9c-1-.7-1.8-1.5-2.2-2.3-.4-.8-.6-1.9-.6-2.9 0-1.3.4-2.5 1.1-3.5s2-1.9 3.5-2.4c1.6-.6 3.6-.9 6.1-.9 3.9 0 7 .8 8.8 2.5 2 1.7 3 3.9 3.3 6.8h23.3c0-5.9-1.5-11-4.4-15.5-2.9-4.4-7-7.8-12.2-10.3-5.1-2.3-11.4-3.5-18.7-3.5-7.2 0-13.4 1.2-18.9 3.6-5.5 2.4-9.8 5.7-12.9 10.1-3.1 4.3-4.7 9.3-4.6 15 0 7.1 2.3 12.6 6.8 16.6 4.6 4 10.9 7 18.8 8.7l8.9 2c3.3.7 6 1.6 8 2.4 2 .8 3.4 1.8 4.3 2.8.8 1 1.3 2.3 1.3 3.6 0 1.5-.5 2.8-1.5 3.9-.9 1.1-2.3 2.1-4 2.7-1.8.6-3.9.9-6.5.9-3.1 0-5.8-.5-8-1.5-2.3-.9-3.9-2.4-5.2-4.3-1.2-1.9-1.9-4.1-2.1-7h-23.2c0 7.6 1.7 13.7 4.9 18.5s7.7 8.4 13.5 10.7c5.8 2.3 12.7 3.4 20.4 3.4 7.6 0 14.1-1 19.6-3.2 5.4-2.2 9.6-5.3 12.6-9.3 2.9-4.1 4.4-9.1 4.5-15 .1-3.4-.4-6.6-1.5-9.5z"/></svg>