<?xml version="1.0" encoding="utf-8"?>
<!-- Generator: Adobe Illustrator 26.3.1, SVG Export Plug-In . SVG Version: 6.00 Build 0)  -->
<svg version="1.1" id="Layer_1" xmlns="http://www.w3.org/2000/svg" xmlns:xlink="http://www.w3.org/1999/xlink" x="0px" y="0px"
	 viewBox="0 0 566.6 150" style="enable-background:new 0 0 566.6 150;" xml:space="preserve">
<style type="text/css">
	.st0{fill:none;}
</style>
<path class="st0" d="M280.5,66.3c-6.8,0-11.4,6.5-11.4,16c0,9.9,4.2,16.6,11.5,16.6l0,0c7.4,0,12.2-6.4,12.2-16.1
	C292.9,71.6,288,66.3,280.5,66.3z"/>
<path d="M127.1,61.9h-0.3V47.5h-25.6v70.9h0h28.1V93.9c0-15.3,5.8-20.7,17.3-20.7c1.9,0,3.9,0.5,5.8,0.8V45.9
	c-1.2-0.1-2.4-0.4-3.7-0.4C137.9,45.5,131,50.8,127.1,61.9z"/>
<path d="M194.5,45.5c-23.9,0-40.2,13.7-40.2,38.3l0,0c0,24.2,17.6,36.7,40.3,36.7c22.7,0,40.3-12.2,40.3-38.1
	C234.9,60.3,219.5,45.5,194.5,45.5z M194.6,101.5c-7.2,0-12.2-5.8-12.2-19.2c0-8,2.8-17.9,12.4-17.9h0c7.3-0.4,11.9,7.4,11.9,17.9
	C206.8,95.7,202.2,101.5,194.6,101.5z"/>
<rect x="329.3" y="47.5" width="28.1" height="70.9"/>
<rect x="329.3" y="18.5" width="28.1" height="20"/>
<path d="M405.7,120.5c19.6,0,36.9-8,39.4-29.5h-28.4c-0.8,5.5-3.7,10.5-11,10.5c-8.3,0-12.3-7-12.3-17.7c0-8.4,1.8-19.3,12.3-19.3
	c3.1,0,5.5,0.9,7.3,2.8c1.8,1.8,2.8,4.2,3,7.3h28.5v0l0,0c-2-21-19.9-29.1-38.8-29.1c-23.4,0-40.4,13.9-40.4,38.1
	C365.2,107.6,382.8,120.5,405.7,120.5z"/>
<polygon points="531.9,118.4 531.9,118.4 531.9,118.4 "/>
<path d="M528.1,108V74.9c0-16.9-2-29.4-35.6-29.4c-28,0-38.7,8.8-38.7,23.8h27.1c0.7-6.1,5.9-6.9,9.9-6.9c3,0,9.2,0.7,9.2,5.8
	c0,13.3-50.5-1.4-50.5,30.8c0,14.7,11.9,21.4,25.3,21.4c10.6,0,18.7-2.2,26.6-9.6l1.4,7.6h29.1v-1.3
	C528.2,114.1,528.1,112.1,528.1,108z M487.5,104.5C487.5,104.5,487.5,104.5,487.5,104.5L487.5,104.5
	C487.5,104.5,487.5,104.5,487.5,104.5c-5.5,0-8.9-2.4-8.9-5.9c0-9.2,12.2-7,21.4-11.5C500.6,96.8,497.4,104.5,487.5,104.5z"/>
<polygon points="487.5,104.5 487.5,104.5 487.5,104.5 "/>
<rect x="538.4" y="21" width="28.1" height="97.4"/>
<path d="M289.3,45.5c-8.1,0-18.3,3.9-22.2,12.6h-0.3V47.5h-25.3v101.8h28.1v-38c4.7,5.9,10.4,9.1,18.1,9.1c15.8,0,33.1-10.1,33.1-38
	C321,63,310.7,45.5,289.3,45.5z M280.7,98.9L280.7,98.9c-7.3,0-11.5-6.8-11.5-16.6c0-9.5,4.6-16,11.4-16c7.4,0,12.3,5.3,12.3,16.5
	C292.9,92.6,288.1,98.9,280.7,98.9z"/>
<path d="M107,0H0v35h21.8c6.3-6.3,18.3-11.8,26.6-13.2V6.7l22.3,28.5L48.4,64.7V47c-7.3,0-23.8,13-23.8,33.9
	c0,12.5,6.4,21.9,14.2,28c-0.2,0,0,9.6,0,9.6h33.8V35H107V0z"/>
<polygon points="48.4,21.8 48.4,21.8 48.4,21.8 "/>
<path d="M555.8,137.9v4.5h3.2c-0.4,1.5-2.2,2.4-3.7,2.4c-3.6,0-4.6-2.7-4.6-5.7c0-1.7,0.3-3.2,0.9-4.2h0h0l0,0
	c0.7-1.2,1.8-1.9,3.3-1.9c1.6,0,2.8,0.7,3.4,1.9h0c0.1,0.2,0.2,0.5,0.3,0.7h6.8c0-0.3-0.1-0.5-0.2-0.7h0h0c-1.2-4.7-5.2-7-10.3-7
	c-5.5,0-9.3,2.7-10.8,7h0c0,0,0,0,0,0h0l0,0c-0.4,1.3-0.7,2.7-0.7,4.2c0,7.3,5,10.8,10.7,10.8c3.5,0,5.4-1.2,6.6-2.6l0.3,2.1h4.6
	v-11.6H555.8z"/>
<path d="M417.9,135C417.9,135,417.9,135,417.9,135L417.9,135c-0.3-4-3.3-6.5-9.4-6.5h-10.6v6.5l0,0v14.5h7.2v-6.5h3.6
	c6.3,0,9.1-2.9,9.1-7.4C417.9,135.4,417.9,135.2,417.9,135L417.9,135z M408.1,138h-3V135h0v-1.6h2c1.4,0,3.3,0.2,3.8,1.6h0
	c0,0,0,0,0,0h0c0,0,0,0,0,0h0c0.1,0.2,0.1,0.4,0.1,0.6C411,137.4,409.8,138,408.1,138z"/>
<path d="M456.1,135C456.1,135,456.1,135,456.1,135C456.1,135,456.1,135,456.1,135L456.1,135C456.1,135,456.1,135,456.1,135
	L456.1,135c-0.3-4-3.3-6.5-9.4-6.5h-10.6v6.5v0v0v0v0h0l0,0v0h0v14.5h7.2v-6.5h3.6c6.3,0,9.1-2.9,9.1-7.4
	C456.1,135.4,456.1,135.2,456.1,135L456.1,135z M446.3,138h-3v-3h0h0v-1.6h2c1.3,0,3.3,0.2,3.8,1.6h0c0.1,0.2,0.1,0.4,0.1,0.6
	C449.2,137.4,448,138,446.3,138z"/>
<polygon points="342.6,135 342.6,135 342.6,135.6 335.8,135.6 335.8,135 335.8,135 335.8,128.5 328.6,128.5 328.6,135 328.6,135 
	328.6,149.4 335.8,149.4 335.8,141.3 342.6,141.3 342.6,149.4 349.8,149.4 349.8,135 349.8,135 349.8,128.5 342.6,128.5 "/>
<polygon points="370.4,135 370.4,135 370.4,149.4 377.6,149.4 377.6,135 377.6,135 377.6,128.5 370.4,128.5 "/>
<polygon points="482.1,128.5 474.9,128.5 474.9,135 474.9,135 474.9,149.4 482.1,149.4 482.1,135 482.1,135 "/>
<polygon points="524,128.5 517.1,128.5 517.1,135 517.1,135 517.1,135.2 517.4,139.9 514,135 513.9,135 513.9,135 509.5,128.5 
	502.7,128.5 502.7,135 502.7,135 502.7,149.4 509.7,149.4 509.7,142.8 509.4,138 517.2,149.4 524,149.4 524,135 524,135 "/>
<path d="M299.2,135.8c-0.8-0.2-1.5-0.5-2-0.8h0c-0.4-0.3-0.6-0.6-0.6-1c0-0.8,0.7-1.2,2.3-1.2c0.1,0,0.2,0,0.3,0
	c0.6,0,1.1,0.1,1.6,0.4c0.5,0.3,0.9,0.7,1,1.4h6.8c-0.5-3.7-3.3-6.6-9.4-6.6c-4.6,0-8.2,1.6-9.2,4.7c-0.2,0.6-0.3,1.3-0.3,2
	c0,0.1,0,0.2,0,0.3l0,0h0h0h0c0,0.4,0.1,0.7,0.2,1.1c1.4,6.3,12.5,4.6,12.5,7.6c0,1-1.2,1.5-3,1.5c-0.7,0-1.5-0.2-2-0.5
	c-0.6-0.4-1-0.9-1.2-1.7h-6.9c0.2,3.8,3.9,7,9.8,7c6.1,0,10.3-2.4,10.3-7.2C309.3,137.4,302.9,136.8,299.2,135.8z"/>
</svg>
