<svg xmlns="http://www.w3.org/2000/svg" xml:space="preserve" viewBox="0 0 165 165.2" role='img'><title>Titan Logistics</title><path d="M113.4 101.2c-10.4 0-18.7-8.1-18.7-18.7 0-10.3 8.4-18.7 18.7-18.7 10 0 18.4 8.4 18.5 18.5.2 10.5-8.2 18.9-18.5 18.9zM82.7 94.7c10.6 0 18.7 8.2 18.5 18.7-.2 10.3-8.2 18.4-18.4 18.5-10.3 0-18.8-8.4-18.8-18.7s8.4-18.7 18.7-18.5zM82.4 32.8c10.4 0 18.8 8.1 18.8 18.5 0 10.3-8.4 18.8-18.7 18.8-10.1 0-18.4-8.2-18.7-18.4-.1-10.2 8.3-18.7 18.6-18.9zM32.8 82.4c0-10.4 8.4-18.7 18.8-18.5 10.2.1 18.4 8.3 18.6 18.5 0 10.3-8.4 18.8-18.7 18.8s-18.7-8.4-18.7-18.8zM42 50.5c0 7.6-6.5 16.5-13.6 18.7-7 2.2-12.5-1.7-12.5-9 0-7.6 6.3-16.5 13.6-18.7 7-2.4 12.5 1.6 12.5 9zM41.8 113.4c0 7.3-5.5 11.4-12.5 9.2-7.3-2.4-13.6-11.1-13.6-18.7 0-7.3 5.5-11.4 12.5-9.2 7.3 2.4 13.6 11.1 13.6 18.7zM123.1 33c0 5.2-3.5 8.7-9.2 9-8.2.3-17.6-7-19.5-14.9-1.3-5.2 1.1-9.3 6.3-10.8 9.4-2.7 22.4 7 22.4 16.7zM122.9 51.2c0-7.1 5.2-11.1 12-9.2 7.4 2.1 14.2 11.6 13.9 19.3-.3 7.1-5.7 10.8-12.5 8.5-7.1-2.2-13.4-10.9-13.4-18.6zM70.5 140.8c-.3 4.7-3.5 7.6-8.7 8.1-8.5.8-18.8-7.1-20.1-15.7-.6-4.6 1.3-8.1 5.5-9.7 9.7-3.5 23.9 7 23.3 17.3zM50.6 42c-7.4 0-11.4-5.5-9.2-12.5 2.4-7.3 11.4-13.6 18.8-13.6 7.3.2 11.2 5.7 8.9 12.8C66.7 35.7 58 42 50.6 42zM122.9 114.3c0-8.4 6.6-17.1 14.7-19 5.7-1.4 10.3 1.7 11.1 7.6 1.1 8.5-5.9 18.7-14.1 20.9-6.8 1.5-11.7-2.5-11.7-9.5zM114.7 122.9c7.1.2 10.9 5.4 8.7 12.3-2.4 7.6-11.2 13.8-19 13.6-7.1-.2-10.9-5.4-8.7-12.3 2.3-7.8 10.9-13.8 19-13.6zM154.2 42.1c.2 4.3-2.4 6.2-5.9 4.4-5.4-2.5-8.5-7.1-9.2-13.1-.5-4.3 2.2-6 5.9-4.3 5.6 2.9 8.5 7.5 9.2 13zM25.7 131.4c0 3.6-2.2 5.2-5.7 4.1-4.4-1.4-9.7-9.2-9.5-13.9.2-3.5 2.5-5.1 5.9-3.6 4.6 1.7 9.3 8.7 9.3 13.4zM138.6 132.1c-.2-4.7 5.1-12.3 9.7-13.8 3.5-1.1 5.5.5 5.5 4.1 0 4.7-4.9 11.7-9.3 13.5-3.6 1.4-5.8-.2-5.9-3.8zM122.3 153.7c-3.5-.2-4.9-2.1-4-5.4 1.4-4.7 9.2-10.1 14.1-9.8 3.3.2 4.7 2.4 3.6 5.5-1.5 4.8-8.8 9.7-13.7 9.7zM11 42.1c0-4.7 4.6-11.6 9-13.3 3.6-1.4 5.9 0 5.9 4.1 0 4.7-4.6 11.6-9 13.3-3.7 1.5-5.9-.1-5.9-4.1zM131.8 25.5c-4.7.2-12.2-4.9-13.8-9.7-1.1-3.2.3-5.4 3.6-5.5 4.9-.3 12.8 5.1 14.1 9.8 1 3.2-.5 5.3-3.9 5.4zM33 25.8c-4 .2-5.7-2.1-4.3-5.9 1.7-4.6 8.9-9.3 13.8-9.2 3.6.2 5.1 2.4 3.8 5.9-1.8 4.6-8.4 9.2-13.3 9.2zM42.8 154.1c-4.9 0-11.7-4.7-13.5-9.3-1.3-3.5.2-5.5 3.8-5.7 4.9-.2 11.7 4.4 13.6 9 1.5 3.7.1 6-3.9 6zM11.6 94.1c-3 3.3-6.6 2.8-9.3-1.3C-1.2 87.3-.6 75.2 3.4 71c3-3.2 6.8-2.5 9.3 1.9 3.3 5.7 2.7 16.6-1.1 21.2zM161.7 94.1c-3 3.3-6.6 2.8-9.3-1.3-3.6-5.5-3-17.6 1.1-21.8 3-3.2 6.8-2.5 9.3 1.9 3.3 5.7 2.8 16.6-1.1 21.2zM93.5 153.6c3.3 3 2.8 6.6-1.4 9.3-5.5 3.5-17.6 2.8-21.8-1.3-3.2-3-2.4-6.8 1.9-9.3 5.9-3.3 16.8-2.7 21.3 1.3zM94.7 3.4c3.3 3 2.8 6.6-1.4 9.3-5.5 3.5-17.6 2.8-21.8-1.3-3.2-3-2.4-6.8 1.9-9.3 5.8-3.3 16.9-2.5 21.3 1.3z"/></svg>